<svg width="315" height="302" viewBox="0 0 315 302" fill="none" xmlns="http://www.w3.org/2000/svg">
<path d="M80 264.825C32.4 267.625 8.16667 260.325 2 256.325C4.4 249.525 38.6667 246.825 55.5 246.325L208 238.325C224.8 235.925 270.333 237.325 291 238.325C325 243.125 312.5 254.325 302 259.325C285.6 271.325 229.833 271.992 204 270.825C196.4 268.425 144.5 263.825 119.5 261.825C104.7 261.825 87 263.825 80 264.825Z" fill="#8F8484" stroke="#8F8484" stroke-width="2"/>
<path d="M99.6306 228.042C91.6753 222.66 99.4565 217.523 103.158 215.721C103.158 215.721 123.56 211.177 128.377 211.192C133.193 211.208 153.829 211.661 163.086 212.424C172.343 213.187 143.011 218.547 134.319 222.755C125.627 226.962 107.586 233.424 99.6306 228.042Z" fill="#495262" stroke="#495262" stroke-width="2"/>
<path d="M28.5 173C35.7 156.6 60.5 160.5 72 164.5L100.5 175L102 183.5C102 190.5 107.333 193.5 111 193L148 196.5L180.5 208C171.7 208 171.833 217.667 173 222.5C171 218.5 140.167 215.167 125 214C100.6 218.8 71.8333 212 60.5 208C23.7 198.4 23.8333 180.667 28.5 173Z" fill="#313742" stroke="#313742" stroke-width="2"/>
<path d="M272 176.5C269.6 195.3 233.333 210.333 215.5 215.5C208.3 211.5 186.833 206.667 178 205L158 199.5L188.5 198.5C194.5 198.9 198.667 194.667 200 192.5L205.5 167.5L213 165C219.8 165.4 228.167 161.167 231.5 159L240 156.5C272 152.9 274.667 168.333 272 176.5Z" fill="#313742" stroke="#313742" stroke-width="2"/>
<path d="M180 206.5C170.8 210.5 171.833 218.5 173.5 222C175.5 222 183.333 225.333 187 227C189 227 196.167 231.667 199.5 234H209C212.6 233.6 216.167 229.167 217.5 227C219.1 221.8 214.833 217.167 212.5 215.5C204.9 212.3 187.667 208.167 180 206.5Z" fill="#495262" stroke="#495262" stroke-width="2"/>
<path d="M100 164C100 162.4 98.3333 151.333 97.5 146H88C84.8 146 85.6667 145 86.5 144.5L97.5 130C97.5 126 100.167 123.667 101.5 123C102.667 121.5 105.2 118.2 106 117C106.8 115.8 108.333 115.833 109 116L111 123L191 126C191.5 124.167 192.5 120.1 192.5 118.5C192.5 116.9 193.5 116.167 194 116C196.333 119.667 201.3 127 202.5 127C203.7 127 207.667 129 209.5 130C211.5 131.2 212.333 135.167 212.5 137L211 142.5C212 143 214 144.4 214 146C214 147.6 212 146.667 211 146L207 164H214C220 164 229.167 159.333 233 157C237 155 236.333 148.833 235.5 146C222.667 125.5 196.7 84.2 195.5 83C194.3 81.8 191.333 79.8333 190 79L163 73.5L162 83C159.2 91 154.5 92 148.5 91.5C143.5 91.5 138.5 88 137.5 83.5L137 73C137 73 133.5 73.5 132.5 73.5C131.086 73.5 119.5 77.6666 112.5 80.5C109 81.9166 106.167 84.8333 105 86.5L64 146C60.8 150.4 61.6667 154.167 62.5 155.5C64.9 160.7 72.5 163.333 76 164C84 164.667 100 165.6 100 164Z" fill="#3E977C" stroke="#3E977C" stroke-width="2"/>
<path d="M100 125C100 125 99.4935 126.667 99 127.5L212 137C211.835 135.833 211.395 133.7 211 132.5C210.605 131.3 208.652 129.833 207.5 129C207.5 129 205 128 197 127.5L104 124.5L100 125Z" fill="#525864" stroke="#525864" stroke-width="2"/>
<path d="M101.256 125C97.6534 125 97.7535 130.594 98.2538 133.392L103.258 187.413C103.258 191.608 109.263 194.406 112.265 195.28L191.328 200C195.731 199.161 198.5 196.503 199.334 195.28L211.844 138.636C213.045 132.343 207.007 130.07 203.838 129.72L101.256 125Z" fill="#CACACA" stroke="#CACACA" stroke-width="2"/>
<path d="M139.042 72L138.542 61C133.042 59 132.042 48 131.042 48C130.242 48 129.375 47.3333 129.042 47C126.642 47 125.209 44.1667 124.042 41C123.642 36.6 126.209 37.6667 127.542 39C127.042 40 130.542 44.5 130.542 45.5C130.542 46.3 131.875 45.5 132.042 45.5V37.5C133.242 37.5 137.209 31.1667 139.042 28C143.042 36.5 158.542 40.5 159.542 40.5C160.342 40.5 159.875 38.5 159.542 37.5L168.542 43V47L168.042 54.5C166.442 58.1 163.375 61 162.042 62L161.042 73L162.042 73.5L161.042 82.5C159.042 90.1 151.542 90.6667 148.042 90C142.842 90 139.542 85 138.542 82.5L138.042 72.5L139.042 72Z" fill="#FEC6D2" stroke="#FEC6D2" stroke-width="1.5"/>
<path d="M171.609 45.1792C172.701 44.6416 173.02 39.6259 173.043 37.1853C174.617 36.7342 175.39 39.1341 175.579 40.3905C175.425 44.0298 172.868 45.0994 171.609 45.1792Z" fill="#FEC6D2" stroke="#FEC6D2" stroke-width="0.7"/>
<path d="M137.5 61.5L138 71.5C134.833 72 128.1 73.2 126.5 74C123.167 75.3333 116.2 78.1 115 78.5C113 79.3333 108.6 80.6 107 79C105.333 78.8333 101.8 77.9 101 75.5C103.5 75 108.8 73.5 110 71.5C107.333 71 102.2 69.9 103 69.5C104 69 108.5 66.5 110.5 65.5C112.333 64 116 60.7 116 59.5C116.333 57.1667 117 52.3 117 51.5V36C117.833 29.5 120.3 16.2 123.5 15C125.833 11.1667 132.1 3.3 138.5 2.5C143.5 2 154.6 1.3 159 2.5C165 4.16667 177.6 10.6 180 23C180.833 31.5 182.4 49.3 182 52.5C182.833 57.1667 185.7 66.2 190.5 65C188.923 66.1471 185.989 68.207 185.2 68.5054C186.454 68.9552 193.281 73.2192 196 70.5C195 73.3333 191.8 78.5 187 76.5C185 76.3333 180.8 75.9 180 75.5C179.2 75.1 168 73.3333 162.5 72.5V63C164.5 61.1667 168.6 56.8 169 54L169.5 48.5L172 46C173.167 45.5 175.1 44.6 175.5 43C175.9 41.4 175.5 41 176 40C175 39 172.8 37.2 172 38C171 39 172 42.5 171 43.5C170 44.5 169.5 47 169.5 46.5C169.5 46 169 41.5 168.5 42C168.003 42.4974 158.103 37.0567 157.509 34.0467C157.846 35.8965 158.603 39.6034 159 40C159.5 40.5 144.5 35.5 140 27.5L138.5 26C138.167 27.6667 137.3 31 136.5 31C135.5 31 131.5 39 131 38L131.5 44.5C130.167 41.8333 129.731 42 128.5 40C127.167 37.8333 124.5 34.8 122.5 40C123.333 43.1667 123.9 45.6 125.5 46C127 47.1667 130.1 49.4 130.5 49C131 48.5 131.5 59 137.5 61.5Z" fill="#EA5F29"/>
<path d="M137.5 61.5L138 71.5C134.833 72 128.1 73.2 126.5 74C123.167 75.3333 116.2 78.1 115 78.5C113 79.3333 108.6 80.6 107 79C105.333 78.8333 101.8 77.9 101 75.5C103.5 75 108.8 73.5 110 71.5C107.333 71 102.2 69.9 103 69.5C104 69 108.5 66.5 110.5 65.5C112.333 64 116 60.7 116 59.5C116.333 57.1667 117 52.3 117 51.5C117 50.7 117 40.8333 117 36C117.833 29.5 120.3 16.2 123.5 15C125.833 11.1667 132.1 3.3 138.5 2.5C143.5 2 154.6 1.3 159 2.5C165 4.16667 177.6 10.6 180 23C180.833 31.5 182.4 49.3 182 52.5C182.833 57.1667 185.7 66.2 190.5 65C188.667 66.3333 185 68.9 185 68.5C185 68 193 73.5 196 70.5C195 73.3333 191.8 78.5 187 76.5C185 76.3333 180.8 75.9 180 75.5C179.2 75.1 168 73.3333 162.5 72.5V63C164.5 61.1667 168.6 56.8 169 54L169.5 48.5L172 46C173.167 45.5 175.1 44.6 175.5 43C175.9 41.4 175.5 41 176 40C175 39 172.8 37.2 172 38C171 39 172 42.5 171 43.5C170 44.5 169.5 47 169.5 46.5C169.5 46 169 41.5 168.5 42C168 42.5 158 37 157.5 34C157.833 35.8333 158.6 39.6 159 40C159.5 40.5 144.5 35.5 140 27.5L138.5 26C138.167 27.6667 137.3 31 136.5 31C135.5 31 131.5 39 131 38L131.5 44.5C130.167 41.8333 129.731 42 128.5 40C127.167 37.8333 124.5 34.8 122.5 40C123.333 43.1667 123.9 45.6 125.5 46C127 47.1667 130.1 49.4 130.5 49C131 48.5 131.5 59 137.5 61.5Z" stroke="#EA5F29" stroke-width="2"/>
<path fill-rule="evenodd" clip-rule="evenodd" d="M260 264.287V297.287C264.5 299.787 276.6 303.287 289 297.287V290.787H294.5C295.833 290.954 298.7 290.887 299.5 289.287V271.787C299.333 270.287 298.4 267.187 296 266.787L289 266.537V263.287C274.6 256.887 263.667 261.287 260 264.287ZM288 270V288H294.678C295.892 288 297.956 287.486 296.499 285.429V272.571C296.297 271.714 295.649 270 294.678 270H288Z" fill="#74706E"/>
<path d="M260 297.287H259V297.876L259.514 298.161L260 297.287ZM260 264.287L259.367 263.513L259 263.813V264.287H260ZM289 297.287L289.436 298.187L290 297.914V297.287H289ZM289 290.787V289.787H288V290.787H289ZM294.5 290.787L294.624 289.795L294.562 289.787H294.5V290.787ZM299.5 289.287L300.394 289.734L300.5 289.523V289.287H299.5ZM299.5 271.787H300.5V271.732L300.494 271.677L299.5 271.787ZM296 266.787L296.164 265.801L296.1 265.79L296.036 265.788L296 266.787ZM289 266.537H288V267.502L288.964 267.537L289 266.537ZM289 263.287H290V262.637L289.406 262.373L289 263.287ZM288 288H287V289H288V288ZM288 270V269H287V270H288ZM296.499 285.429H295.499V285.747L295.683 286.007L296.499 285.429ZM296.499 272.571H297.499V272.455L297.472 272.342L296.499 272.571ZM294.5 269.787L294.816 268.838L294.662 268.787H294.5V269.787ZM296.525 285.931L297.364 285.387L297.364 285.387L296.525 285.931ZM292.923 287.138L292.877 286.139L292.877 286.139L292.923 287.138ZM261 297.287V264.287H259V297.287H261ZM288.564 296.387C276.53 302.21 264.78 298.799 260.486 296.413L259.514 298.161C264.22 300.776 276.67 304.364 289.436 298.187L288.564 296.387ZM288 290.787V297.287H290V290.787H288ZM294.5 289.787H289V291.787H294.5V289.787ZM298.606 288.84C298.421 289.21 297.908 289.539 297.005 289.719C296.151 289.889 295.212 289.868 294.624 289.795L294.376 291.779C295.121 291.873 296.283 291.902 297.395 291.68C298.459 291.469 299.779 290.964 300.394 289.734L298.606 288.84ZM298.5 271.787V289.287H300.5V271.787H298.5ZM295.836 267.774C296.606 267.902 297.228 268.474 297.71 269.355C298.189 270.229 298.434 271.247 298.506 271.898L300.494 271.677C300.4 270.827 300.095 269.546 299.465 268.395C298.838 267.25 297.794 266.072 296.164 265.801L295.836 267.774ZM288.964 267.537L295.964 267.787L296.036 265.788L289.036 265.538L288.964 267.537ZM288 263.287V266.537H290V263.287H288ZM260.633 265.061C264.008 262.3 274.54 257.955 288.594 264.201L289.406 262.373C274.66 255.82 263.325 260.275 259.367 263.513L260.633 265.061ZM289 288V270H287V288H289ZM294.678 287H288V289H294.678V287ZM295.683 286.007C295.984 286.432 296.001 286.639 296 286.676C296 286.687 295.999 286.679 296.005 286.668C296.009 286.661 296.004 286.674 295.968 286.703C295.885 286.769 295.716 286.852 295.45 286.914C295.196 286.974 294.917 287 294.678 287V289C295.045 289 295.48 288.962 295.908 288.861C296.326 288.763 296.809 288.588 297.212 288.269C297.642 287.927 297.984 287.409 297.999 286.721C298.014 286.083 297.742 285.454 297.315 284.851L295.683 286.007ZM295.499 272.571V285.429H297.499V272.571H295.499ZM294.678 271C294.608 271 294.606 270.966 294.688 271.036C294.774 271.111 294.887 271.249 295.01 271.463C295.257 271.891 295.439 272.436 295.526 272.801L297.472 272.342C297.356 271.85 297.114 271.109 296.743 270.465C296.558 270.143 296.314 269.8 295.999 269.526C295.68 269.249 295.233 269 294.678 269V271ZM288 271H294.678V269H288V271ZM288.645 262.352C283.935 264.139 271.61 266.843 260.296 263.332L259.704 265.242C271.59 268.931 284.398 266.102 289.355 264.222L288.645 262.352ZM289 270.787H294.5V268.787H289V270.787ZM294.184 270.736C294.295 270.773 294.524 270.89 294.712 271.088C294.884 271.269 295 271.491 295 271.787H297C297 270.883 296.616 270.188 296.163 269.711C295.726 269.251 295.205 268.968 294.816 268.838L294.184 270.736ZM295 271.787V284.787H297V271.787H295ZM295 284.787C295 285.198 295.159 285.561 295.278 285.794C295.405 286.045 295.567 286.292 295.686 286.475L297.364 285.387C297.232 285.184 297.131 285.026 297.059 284.885C297.025 284.818 297.007 284.774 296.999 284.748C296.991 284.721 297 284.738 297 284.787H295ZM295.686 286.475C295.784 286.626 295.854 286.736 295.907 286.829C295.967 286.938 295.952 286.936 295.939 286.867C295.931 286.823 295.916 286.714 295.951 286.572C295.991 286.412 296.081 286.263 296.212 286.152C296.33 286.051 296.44 286.017 296.483 286.007C296.526 285.996 296.538 286 296.5 286V288C296.738 288 297.16 287.971 297.507 287.676C297.949 287.3 297.96 286.79 297.904 286.495C297.854 286.231 297.733 285.998 297.652 285.852C297.561 285.691 297.452 285.523 297.364 285.387L295.686 286.475ZM290 287.287V269.787H288V287.287H290ZM296.5 286C295.886 286 294.376 286.07 292.877 286.139L292.969 288.137C294.502 288.066 295.946 288 296.5 288V286ZM292.877 286.139C291.263 286.213 289.654 286.287 289 286.287V288.287C289.714 288.287 291.388 288.21 292.969 288.137L292.877 286.139ZM290 290.787V287.287H288V290.787H290ZM290 269.787V266.537H288V269.787H290Z" fill="#74706E"/>
<path d="M261.5 264.5C261.852 269.423 288 267.5 288 263.646C288 259.792 261.148 259.577 261.5 264.5Z" fill="#5A5552" stroke="#5A5552"/>
<path d="M277.5 261.5C275.833 261.333 272.7 260.5 273.5 258.5C273.5 257.667 274.4 255.8 278 255C279.167 254.833 281.7 254.2 282.5 253C282.833 252.333 282.3 250.7 277.5 249.5C276.167 249.333 273.5 248.6 273.5 247" stroke="#FFFBFA" stroke-width="0.6"/>
<path d="M271.932 264C269.941 263.782 266.198 262.69 267.153 260.069C267.153 258.977 268.228 256.531 272.529 255.483C273.923 255.264 276.949 254.434 277.904 252.862C278.303 251.989 277.665 249.848 271.932 248.276C270.339 248.057 267.153 247.097 267.153 245" stroke="#FFFBFA" stroke-width="0.8"/>
<path d="M276.483 266C274.673 265.805 271.271 264.828 272.139 262.483C272.139 261.506 273.117 259.317 277.026 258.379C278.293 258.184 281.044 257.441 281.913 256.034C282.275 255.253 281.696 253.338 276.483 251.931C275.035 251.736 272.139 250.876 272.139 249" stroke="#FFFBFA" stroke-width="0.5"/>
<path d="M161.5 62.5V67.5L155.583 70.0628C149.583 72.0628 139.541 71.0628 139.041 70.0628C138.516 69.0122 138.9 63.0028 138.662 61.7199C138.505 61.6238 138.445 61.5485 138.5 61.5C138.573 61.4358 138.625 61.5211 138.662 61.7199C140.05 62.572 149.039 65.0628 153.083 65.0628C157.083 64.5628 158.833 64.3333 161.5 62.5Z" fill="#E7A8A4" fill-opacity="0.6"/>
<path d="M263.114 282.909V282L270.432 278.273V279.727L264.818 282.432L264.864 282.341V282.568L264.818 282.477L270.432 285.182V286.636L263.114 282.909ZM277.388 274.818L273.638 288.75H272.411L276.161 274.818H277.388ZM286.682 282.909L279.364 286.636V285.182L284.977 282.477L284.932 282.568V282.341L284.977 282.432L279.364 279.727V278.273L286.682 282V282.909Z" fill="#FDF4F4"/>
</svg>
